<svg width="36" height="36" fill="none" xmlns="http://www.w3.org/2000/svg"><g clip-path="url('#clip0_11722_10980')" fill="#131313"><path d="M6.94.216C6.645.47 5.806 2.22 5.505 3.176c-.358 1.184-.48 2.072-.432 3.298.065 1.75.505 3.078 1.474 4.465.253.363.457.676.457.702 0 .017-.155.033-.35.033-.84 0-2.412.28-3.617.643C1.124 12.892 0 13.898 0 15.023c0 .398.358 1.074.741 1.42.741.669 2.362 1.303 4.105 1.607.603.11 2.395.296 2.794.305.073 0 .098.389.098 1.666 0 1.099.04 1.953.122 2.477.293 1.877 1.205 3.865 2.41 5.268l.416.482-.277.449c-.407.634-.562 1.116-.61 1.835-.123 1.725.952 3.255 3.03 4.33 3.957 2.054 10.107 1.25 12.412-1.624 1.124-1.404 1.254-3.01.366-4.465l-.277-.448.497-.6c.929-1.117 1.531-2.233 1.987-3.645.383-1.201.53-2.36.53-4.195 0-.837.024-1.53.065-1.53.375-.009 2.175-.203 2.745-.305 1.751-.304 3.34-.93 4.105-1.606.383-.347.741-1.023.741-1.421 0-1.252-1.27-2.266-3.633-2.875-.773-.203-2.231-.448-2.94-.49l-.334-.026.367-.507c.456-.618 1.026-1.818 1.246-2.605.619-2.274.236-4.921-1.091-7.45C29.06.022 28.677-.223 28.23.19c-.171.162-.245.381-.407 1.176-.505 2.529-1.442 4.533-2.81 6.013l-.603.66H11.525l-.538-.584c-1.335-1.472-2.305-3.552-2.81-6.089C8.014.571 7.941.352 7.77.191c-.269-.245-.53-.237-.83.025Zm1.042 5.015c.432.947.97 1.835 1.604 2.655l.505.651-.529.398c-.497.38-.961.921-1.32 1.539l-.154.279-.391-.533c-1.336-1.844-1.67-4.101-.961-6.444.342-1.133.334-1.124.643-.143.147.473.424 1.192.603 1.598Zm21.2-1.784a8.358 8.358 0 0 1 .465 2.85c0 1.538-.407 2.84-1.262 4.008l-.383.524-.285-.482a5.064 5.064 0 0 0-1.426-1.565c-.22-.143-.39-.287-.39-.304 0-.025.154-.22.35-.431.904-1.007 1.873-2.816 2.354-4.372.146-.482.293-.88.317-.88.025 0 .147.296.26.652Zm-4.161 6.181c.904.38 1.767 1.471 1.906 2.393.073.507.244.829.464.88.098.016.774.076 1.499.126 2.573.17 4.601.72 5.465 1.472.399.355.358.65-.122 1.014-.961.728-3.038 1.277-5.156 1.37-1.401.06-1.694.102-1.882.296-.138.144-.154.296-.154 1.827 0 2.072-.106 3.264-.367 4.228-.366 1.31-1.091 2.706-1.938 3.695l-.35.406-.725-.431a8.988 8.988 0 0 0-2.688-1.09c-3.087-.737-6.5-.288-8.796 1.158l-.53.338-.334-.398c-.456-.532-1.173-1.674-1.458-2.317-.627-1.454-.814-2.638-.814-5.242 0-2.529.13-2.343-1.743-2.444-2.395-.127-4.22-.558-5.368-1.286-.847-.54-.708-1.023.473-1.59 1.132-.549 2.687-.879 4.846-1.014 1.678-.11 1.718-.135 1.873-.947.228-1.226 1.132-2.241 2.273-2.562.285-.085 1.881-.102 6.768-.093l6.394.017.464.194Zm-4.578 17.504c1.996.49 3.486 1.404 4.13 2.537.155.262.22.533.252.947.033.516.009.643-.187 1.066-.904 1.92-4.227 3.188-7.607 2.9-4.064-.338-6.736-2.604-5.685-4.828.57-1.201 2.5-2.351 4.536-2.69.334-.05.668-.11.733-.126.066-.017.799-.017 1.63 0 1.131.025 1.677.076 2.198.194Z"/><path d="M12.364 13.861c-.506.17-.848.39-1.304.846-.399.38-.431.828-.097 1.099.31.253.602.22.977-.11.472-.414.839-.583 1.295-.583.456-.009.806.152 1.295.583.375.33.668.363.977.11.163-.135.212-.245.212-.5 0-.261-.057-.38-.342-.667-.806-.811-2.004-1.124-3.014-.778ZM21.86 13.852c-.52.195-1.189.635-1.457.964-.261.322-.27.685 0 .956.268.287.594.27.985-.051.961-.795 1.678-.82 2.566-.085.228.195.488.347.57.347.399 0 .725-.355.725-.778 0-.27-.676-.896-1.287-1.192-.676-.33-1.482-.389-2.101-.16ZM13.545 29.502c-.236.228-.318.558-.196.82.09.21.228.296.79.448.253.067.359.152.448.363.114.28.123.28.75.305l.627.025v-.237c-.008-.338-.196-.828-.44-1.166-.285-.39-.782-.643-1.344-.694-.383-.034-.48-.017-.635.136ZM21.323 29.442c-.407.11-.994.66-1.157 1.09a2.92 2.92 0 0 0-.154.77c-.017.363.016.448.211.625.48.423 1.116.093 1.116-.583 0-.33.244-.558.676-.642.456-.085.62-.271.627-.702 0-.567-.505-.786-1.32-.558Z"/></g><defs><clipPath id="clip0_11722_10980"><path fill="#fff" d="M0 0h36v36H0z"/></clipPath></defs></svg>