<svg version="1.0" xmlns="http://www.w3.org/2000/svg" width="682.667" height="682.667" viewBox="0 0 512 512"><path d="M239.6 18.6c-3.8.9-9.8 2.8-13.4 4.5-6.4 2.8-18.3 11.1-21.2 14.6C194.8 50 191 57 187.9 68.9c-2.9 10.7-2.4 30.3.8 38.7.4 1.1-.5 1.4-4.1 1.4-8.3 0-18.9 4.6-25.7 11-9.3 8.9-13.7 24.6-10.4 37.4.8 3.1 1.5 5.8 1.5 6 0 .2-2.5 2-5.5 4-13.4 8.8-22.8 23.5-25.2 39.1-1 6.5-.7 17.6.7 23.5 3.8 16.3 15.9 31.7 30.4 38.6 7.6 3.6 7.7 3.7 7 6.8-.4 1.7-.7 4.1-.6 5.3.2 3.3 10.1 42.3 11.3 44.4 1.6 3.1 7.4 6.8 11.5 7.5 3.9.6 4.9 1 5 2.2.1 1.6 1.6 13.8 1.9 15.3.1.8.6 4.1.9 7.1.4 3.1.8 6.4 1 7.4.2 1.1.7 4.5 1.1 7.8.3 3.2.8 6.8 1 8 .2 1.1.6 4.3 1 7.1.7 5.6 1.2 9.2 2 14.8.3 2.1.8 5.9 1.1 8.5.3 2.6.7 5.8.9 7.2.5 3 2.3 16.9 3 22.5 1.3 10.8 3.9 18.9 7.6 23.6 1.6 2 2.5 3.9 2.1 4.3-.4.4-.2.6.3.5 1.6-.5 6.5 3.2 5.8 4.4-.3.6-.1.7.5.3.6-.3 2.7.3 4.8 1.4 2 1.2 3.9 1.9 4.1 1.6.3-.3 1.6-.1 2.9.4 2.8 1.1 53.7 1.6 55.3.6.6-.4 1.1-.2 1.1.5 0 .8.4.8 1.5-.1.8-.7 2.4-1 3.6-.7 1.2.3 1.8.3 1.5 0-.3-.3 1.6-1.6 4.2-2.8 2.6-1.2 6.1-3.4 7.8-4.8 1.7-1.5 3.5-2.3 3.9-1.9.5.4.5.2.1-.5-.8-1.5 2.4-5.4 3.7-4.6.6.3.7.2.4-.4-.3-.5.2-3.2 1.3-6 1-2.7 2.1-6.9 2.5-9.4.3-2.4.8-5.1 1-5.9.2-.8.6-4 1-7.1.3-3.1.7-6.5.9-7.5.2-1.1.7-4.8 1.1-8.4.4-3.6.8-6.7 1-7 .2-.3.6-3.7.9-7.5.4-3.9.9-7.7 1.1-8.5.2-.8.6-3.8 1-6.5.3-2.8 1-7.7 1.5-11s1.2-8.5 1.5-11.5c.3-3 .8-6.6 1-8 .2-1.4.6-4.5 1-7 .3-2.5.8-6.2 1.1-8.3.3-2 .7-4.8.9-6.2.3-3.1.4-3.3 3.5-3.8 10.1-2 11.6-4.3 17.9-29.4 5.1-20.3 5.8-25.7 3.8-30.3-.5-1.1 1-2.4 6-5 13.6-6.9 24.7-21.3 28.8-36.9 3.1-11.9 2.4-28.2-1.7-38.6-3.5-9.1-12.2-19.2-21.8-25.4l-5.5-3.6 1.3-4c7.6-22.9-9.6-48.5-33.7-50.3l-6.9-.5 1.3-3.8c.9-2.4 1.3-6.9 1.1-11.7-.5-12.9-6.6-22.5-18.1-28.5-5.7-2.9-6.7-3.1-21-3.7-16.2-.6-19.8-1.6-25.2-6.6-7.2-6.8-9.6-17.9-5.9-27.6 1.7-4.4 1.7-4.9.2-7.3-1.9-2.9-3.2-3-13-.9zM179.6 466.7c-.6 1.4-.5 1.5.5.6.7-.7 1-1.5.7-1.8-.3-.3-.9.2-1.2 1.2zM163 467.5c0 .5.5 1.7 1 2.5s1 1 1 .5c0-.6-.5-1.7-1-2.5s-1-1.1-1-.5zM175.9 472.2c-.5 1.8-.6 3.8-.1 3.4.7-.8 1.2-3.6.6-3.6-.2 0-.4.1-.5.2zM347 473.7c0 .6.8 1.7 1.8 2.4 1.6 1.3 1.6 1.3.2-.6-.8-1.1-1.6-2.2-1.7-2.4-.2-.2-.3 0-.3.6zM303 475.5c0 .5.5 1.7 1 2.5s1 1 1 .5c0-.6-.5-1.7-1-2.5s-1-1.1-1-.5zM241.6 479.8c-.3.5.1.9.9.9s1.2-.4.9-.9c-.3-.4-.7-.8-.9-.8-.2 0-.6.4-.9.8zM247 480c0 .5.5 1 1.1 1 .5 0 .7-.5.4-1-.3-.6-.8-1-1.1-1-.2 0-.4.4-.4 1zM252.7 480.1c.7.7 1.5 1 1.8.7.3-.3-.2-.9-1.2-1.2-1.4-.6-1.5-.5-.6.5zM287.3 480.5c0 .8.4 1.2.9.9.5-.3.6-1 .3-1.5-.9-1.3-1.2-1.1-1.2.6zM295 479.9c0 .6.4 1.3 1 1.6.6.3.7-.1.4-.9-.7-1.8-1.4-2.1-1.4-.7zM331 480.4c.7.7 1.3.7 2 0 .6-.6.3-1-1-1s-1.6.4-1 1zM306.6 484.2c.3.5 1 .6 1.5.3 1.3-.9 1.1-1.2-.6-1.2-.8 0-1.2.4-.9.9z"/></svg>