<svg xmlns="http://www.w3.org/2000/svg" aria-hidden="true" style="width:0;height:0;position:absolute;overflow:hidden"><defs><symbol id="icon-clarity_close-line" viewBox="0 0 32 32"><path d="m17.253 16 7.369-7.369a.885.885 0 0 0-.047-1.206.893.893 0 0 0-1.207-.047l-7.369 7.369L8.63 7.369a.892.892 0 0 0-1.262 1.262L14.746 16l-7.378 7.369a.891.891 0 0 0-.05 1.304.906.906 0 0 0 .663.26.88.88 0 0 0 .641-.31L16 17.254l7.369 7.369a.886.886 0 0 0 1.207-.047.893.893 0 0 0 .047-1.207L17.254 16z"/></symbol><symbol id="icon-cow" viewBox="0 0 31 32"><path d="M6.002.778c-.254.219-.979 1.733-1.24 2.559-.31 1.024-.416 1.791-.373 2.852.056 1.514.437 2.661 1.275 3.861.218.314.394.585.394.607 0 .015-.134.029-.303.029-.726 0-2.085.241-3.128.556C.972 11.739 0 12.609 0 13.582c0 .344.31.929.641 1.228.641.578 2.043 1.126 3.55 1.389.521.095 2.071.256 2.416.263.063 0 .085.336.085 1.44 0 .951.035 1.689.106 2.142.254 1.623 1.043 3.341 2.085 4.555l.359.417-.24.387c-.352.548-.486.965-.528 1.587-.106 1.492.824 2.815 2.62 3.744 3.423 1.777 8.742 1.082 10.735-1.404.972-1.214 1.085-2.603.317-3.861l-.239-.388.43-.519c.803-.965 1.324-1.93 1.719-3.151.331-1.038.458-2.04.458-3.627 0-.724.021-1.323.056-1.323.324-.007 1.881-.175 2.374-.263 1.515-.263 2.888-.804 3.55-1.389.331-.3.641-.885.641-1.228 0-1.082-1.099-1.96-3.142-2.486-.669-.175-1.93-.387-2.543-.424l-.289-.022.317-.439c.394-.534.888-1.572 1.078-2.252.535-1.967.204-4.255-.944-6.442-.479-.907-.81-1.119-1.198-.76-.148.139-.211.329-.352 1.016-.437 2.186-1.247 3.919-2.43 5.199l-.521.57H9.967l-.465-.505c-1.155-1.272-1.993-3.071-2.43-5.264-.141-.687-.204-.877-.352-1.016-.232-.212-.458-.205-.718.022zm.901 4.336c.373.819.838 1.587 1.388 2.296l.437.563-.458.344a4.6 4.6 0 0 0-1.141 1.331l-.134.241-.338-.461c-1.155-1.594-1.444-3.546-.831-5.571.296-.98.289-.972.556-.124.127.409.366 1.031.521 1.382zm18.336-1.543a7.22 7.22 0 0 1 .402 2.464c0 1.331-.352 2.457-1.092 3.466l-.331.453-.247-.417a4.38 4.38 0 0 0-1.233-1.353c-.19-.124-.338-.249-.338-.263 0-.022.134-.19.303-.373.782-.87 1.62-2.435 2.036-3.78.127-.417.254-.76.275-.76s.127.256.225.563zM21.64 8.916c.782.329 1.529 1.272 1.648 2.069.063.439.211.717.402.76.084.015.669.066 1.296.11 2.226.146 3.98.621 4.727 1.272.345.307.31.563-.106.877-.831.629-2.627 1.104-4.459 1.184-1.212.051-1.465.088-1.627.256-.12.124-.134.256-.134 1.579 0 1.791-.092 2.822-.317 3.656-.317 1.133-.944 2.34-1.677 3.195l-.303.351-.627-.373a7.77 7.77 0 0 0-2.325-.943c-2.67-.636-5.621-.249-7.608 1.002l-.458.293-.289-.344c-.394-.461-1.014-1.448-1.261-2.003-.542-1.258-.704-2.281-.704-4.533 0-2.186.113-2.025-1.507-2.113-2.071-.11-3.649-.483-4.642-1.111-.733-.468-.613-.885.409-1.375.979-.475 2.325-.76 4.191-.877 1.451-.095 1.486-.117 1.62-.819.197-1.06.979-1.938 1.965-2.215.246-.073 1.627-.088 5.854-.08l5.53.015.401.168zm-3.959 15.135c1.726.424 3.015 1.214 3.571 2.193.134.227.19.461.218.819.028.446.007.556-.162.921-.782 1.66-3.656 2.756-6.579 2.508-3.515-.293-5.826-2.252-4.917-4.175.493-1.038 2.163-2.033 3.924-2.325.289-.044.578-.095.634-.11s.69-.015 1.409 0c.979.022 1.451.066 1.902.168z"/><path d="M10.693 12.579c-.437.146-.733.336-1.127.731-.345.329-.373.717-.085.95.268.219.521.19.845-.095.409-.358.726-.505 1.12-.505.394-.007.697.132 1.12.505.324.285.578.314.845.095.141-.117.183-.212.183-.431 0-.227-.049-.329-.296-.578-.697-.702-1.733-.972-2.606-.673zm8.213-.008c-.451.168-1.029.548-1.261.833-.225.278-.232.592 0 .826.232.249.514.234.852-.044.831-.687 1.451-.709 2.219-.073.197.168.423.3.493.3.345 0 .627-.307.627-.673 0-.234-.585-.775-1.113-1.031-.585-.285-1.282-.336-1.817-.139zm-7.192 13.535c-.204.197-.275.483-.169.709.078.183.197.256.683.388.218.058.31.132.387.314.099.241.106.241.648.263l.542.022v-.205c-.007-.293-.169-.717-.38-1.009-.247-.336-.676-.556-1.162-.6-.331-.029-.416-.015-.549.117zm6.728-.052c-.352.095-.859.57-1 .943a2.54 2.54 0 0 0-.134.665c-.014.314.014.388.183.541.416.366.965.08.965-.504 0-.285.211-.483.585-.556.394-.073.535-.234.542-.607 0-.49-.437-.68-1.141-.483z"/></symbol><symbol id="icon-ep_close" viewBox="0 0 32 32"><path fill="#fcfcfc" d="M23.884 6.706 16 14.59 8.116 6.706a.995.995 0 0 0-1.38.031 1 1 0 0 0-.031 1.38l7.88 7.884-7.882 7.882a1.002 1.002 0 0 0-.018 1.427.998.998 0 0 0 1.427-.015l7.886-7.882 7.884 7.884a1 1 0 0 0 1.38-.03 1 1 0 0 0 .03-1.38l-7.884-7.884 7.884-7.886a1.002 1.002 0 0 0 .018-1.427.998.998 0 0 0-1.427.015v.002z" style="fill:var(--color1,#fcfcfc)"/></symbol><symbol id="icon-modal-icon-close" viewBox="0 0 32 32"><path d="m17.253 16 7.369-7.369a.889.889 0 0 0-1.255-1.252l.001-.001-7.369 7.369L8.63 7.37a.893.893 0 1 0-1.263 1.26l.001.001L14.747 16l-7.379 7.369a.888.888 0 1 0 1.252 1.254l.001-.001L16 17.253l7.368 7.369a.889.889 0 0 0 1.252-1.255l.001.001-7.368-7.369z"/></symbol><symbol id="icon-eva_menu-fill" viewBox="0 0 32 32"><path fill="#fff" d="M26.733 14.667H5.266c-.7 0-1.267.567-1.267 1.267v.133c0 .7.567 1.267 1.267 1.267h21.467c.7 0 1.267-.567 1.267-1.267v-.133c0-.7-.567-1.267-1.267-1.267zm0 6.666H5.266c-.7 0-1.267.567-1.267 1.267v.133c0 .7.567 1.267 1.267 1.267h21.467c.7 0 1.267-.567 1.267-1.267V22.6c0-.7-.567-1.267-1.267-1.267zm0-13.333H5.266c-.7 0-1.267.567-1.267 1.267V9.4c0 .7.567 1.267 1.267 1.267h21.467c.7 0 1.267-.567 1.267-1.267v-.133C28 8.567 27.433 8 26.733 8z" style="fill:var(--color2,#fff)"/></symbol><symbol id="icon-facebook" viewBox="0 0 32 32"><path fill="#f8d24e" d="M16 32c8.837 0 16-7.163 16-16S24.837 0 16 0 0 7.163 0 16s7.163 16 16 16z" style="fill:var(--color3,#f8d24e)"/><path d="M20.446 15.982h-2.61V25.6h-3.955v-9.618H12v-3.38h1.881v-2.187c0-1.564.739-4.014 3.99-4.014l2.929.012v3.281h-2.125c-.349 0-.839.175-.839.921v1.989h2.955l-.346 3.377z"/></symbol><symbol id="icon-github" viewBox="0 0 32 32"><path fill="#f8d24e" d="M32 16c0 8.837-7.163 16-16 16S0 24.837 0 16 7.163 0 16 0s16 7.163 16 16z" style="fill:var(--color3,#f8d24e)"/><path d="M16 6.588c-5.169 0-9.412 4.242-9.412 9.412 0 4.411 3.095 8.419 7.206 9.412v-3.114a2.307 2.307 0 0 1-1.197-.03c-.556-.164-1.008-.535-1.344-1.1-.214-.361-.593-.752-.988-.723l-.097-1.099c.855-.073 1.595.521 2.034 1.259.195.328.419.52.708.605.278.082.578.043.926-.08.088-.698.407-.959.648-1.326v-.001c-2.451-.366-3.428-1.666-3.816-2.693-.514-1.363-.238-3.066.671-4.142.018-.021.05-.076.037-.114-.417-1.258.091-2.299.11-2.41.481.142.559-.143 2.089.786l.264.159c.111.066.076.028.186.02A8.031 8.031 0 0 1 16 11.131a8.016 8.016 0 0 1 2.002.285l.086.009c-.007-.001.023-.005.075-.036 1.911-1.157 1.842-.779 2.355-.946.019.111.519 1.169.107 2.411-.056.171 1.657 1.739.708 4.256-.388 1.027-1.365 2.328-3.816 2.693v.001c.314.479.692.734.69 1.722v3.887c4.111-.993 7.206-5 7.206-9.412 0-5.169-4.242-9.412-9.412-9.412z"/></symbol><symbol id="icon-ice-crema" viewBox="0 0 32 32"><path d="M16.108.107c.08.214.241 1.252.241 1.573 0 .797-.295 1.54-.837 2.122-.449.482-.897.75-1.975 1.185-1.198.489-1.694.783-2.256 1.339-.569.569-.904 1.192-1.024 1.921-.134.797 0 1.359.408 1.68l.208.161-.328.208c-.663.435-1.868 1.459-2.075 1.774-.402.603-.361 1.165.094 1.392l.214.107-.241.228c-.361.341-.435.576-.382 1.192.033.408.02.629-.074.964-.114.435-.114.442.033.75.147.301.562.683.937.843.181.08.187.107.228.723.02.355.053 1.486.08 2.517.02 1.031.067 1.975.107 2.089a.79.79 0 0 0 .274.361c.388.268.656.556.83.89.194.382.408 1.319 1.058 4.559l.455 2.276.281.268c.536.529 1.56.77 3.247.77 1.694 0 2.705-.234 3.24-.763l.288-.274.415-2.109c.917-4.613.997-4.867 1.714-5.436.221-.181.435-.402.475-.502.047-.114.094-.991.127-2.316.027-1.178.067-2.343.094-2.591l.04-.449.435-.328c.549-.422.763-.803.763-1.393-.007-.696-.462-1.459-1.292-2.142l-.395-.321.194-.274c.81-1.118.301-2.664-1.205-3.695l-.455-.315.167-.174c.743-.797.864-3.173.241-4.827-.375-.984-1.232-2.055-2.283-2.845C17.659.857 16.239 0 16.112 0c-.027 0-.027.047-.007.107zm1.928 2.336c.355.348.783.823.951 1.064.997 1.392 1.252 3.14.649 4.425-.241.522-.964 1.299-1.633 1.761-1.024.71-3.327 1.901-4.934 2.557-2.584 1.051-4.084 1.252-4.258.562-.067-.261.127-.469.951-1.018.743-.509 4.077-2.986 4.137-3.086.02-.027-.321.127-.75.341-1.453.736-2.142.596-2.109-.428.02-.743.556-1.587 1.299-2.069.187-.12.77-.388 1.305-.603 1.761-.71 2.296-1.071 2.892-1.962.355-.529.743-1.506.77-1.921.007-.147.034-.261.054-.261s.321.288.676.636zm1.828 7.606c.489.274.997.743 1.218 1.111.388.663.187 1.325-.649 2.169-.91.924-2.464 1.808-4.171 2.37-1.573.515-3.079.756-5.235.83l-1.339.047.87.054c1.125.074 3.3.007 4.144-.127 2.243-.355 4.151-1.064 5.516-2.042.308-.221.629-.402.716-.402.221 0 1.185.924 1.379 1.312.107.221.134.382.114.596-.1.89-1.185 1.366-3.802 1.68-3.2.382-7.384.007-9.172-.817-.844-.388-.984-.609-.77-1.198.067-.187.08-.408.054-.723-.033-.415-.027-.469.12-.623.335-.361.897-.569 2.959-1.091a28.11 28.11 0 0 0 2.176-.656c1.138-.415 3.274-1.493 4.264-2.156.93-.616 1.064-.643 1.607-.335zm-8.89 8.194c1.406.408 2.651.529 4.967.482 1.741-.034 2.812-.141 4.358-.415.315-.053.589-.1.623-.1.074 0 .053 2.571-.027 3.247-.087.716-.281 1.272-.489 1.406-.214.141-1.285.288-2.718.368-2.939.161-5.958 0-6.895-.375-.509-.207-.562-.475-.569-2.959 0-1.654.013-1.881.1-1.848.053.02.348.107.649.194zm1.586 5.69c.482.06 1.004.121 1.165.141l.288.034-.254.281c-.328.355-.83 1.064-1.011 1.426-.207.415-.274.442-.582.274l-.261-.147-.147-.91c-.08-.495-.167-.971-.187-1.051-.06-.174-.12-.174.991-.047zm7.137-.074c0 .013-.033.187-.067.382-.04.201-.208 1.292-.375 2.43-.341 2.377-.569 3.495-.777 3.869-.288.502-.977.797-2.095.89-.435.034-1.747-.053-1.821-.12-.053-.06 1.098-1.486 1.279-1.58.167-.094.214-.08.783.214.663.348.997.402.997.181s-.174-.435-.602-.73c-.395-.281-.536-.442-.536-.629 0-.053.194-.355.428-.669s.576-.817.75-1.118l.328-.542.301.04c.609.087.77.08.75-.053-.013-.067-.127-.261-.254-.422-.127-.167-.228-.335-.228-.368 0-.127.623-1.299.823-1.546.174-.214.315-.321.315-.228zm-4.184.536c.335.221 1.593 1.312 1.674 1.446.034.06-1.259 2.082-1.513 2.37-.027.034-.167-.033-.308-.141a22.133 22.133 0 0 0-1.165-.803l-.904-.596.542-.917c.964-1.613.944-1.587 1.151-1.587.107 0 .341.1.522.228zm2.537.241c-.234.288-.428.469-.509.469-.174 0-.455-.154-.93-.502l-.395-.288.79-.047c.428-.02.844-.047.917-.06.536-.087.536-.08.127.428zm-5.061 3.22c.616.241 1.66.81 1.962 1.064.214.174.214.187.127.402a6.675 6.675 0 0 1-.415.716c-.174.268-.375.602-.449.743-.214.415-.281.449-.723.328-.475-.141-.73-.382-.864-.817-.181-.609-.469-2.33-.435-2.598.013-.1.295-.04.797.161z"/></symbol><symbol id="icon-telegram" viewBox="0 0 32 32"><path fill="#f8d24e" d="M32 16c0 8.837-7.163 16-16 16S0 24.837 0 16 7.163 0 16 0s16 7.163 16 16z" style="fill:var(--color3,#f8d24e)"/><path d="m12.869 18.375-.318 4.169c.454 0 .651-.182.887-.401l2.13-1.9 4.415 3.017c.81.421 1.38.199 1.598-.695l2.898-12.672.001-.001c.257-1.117-.433-1.554-1.222-1.28L6.226 14.698c-1.162.421-1.145 1.026-.198 1.3l4.354 1.264 10.115-5.907c.476-.294.909-.131.553.163l-8.182 6.857z"/></symbol><symbol id="icon-weight" viewBox="0 0 32 32"><path d="M14.177.547c-3.974.589-7.247 2.796-8.451 5.685-.384.913-.488 1.473-.488 2.573.007.812.037 1.114.162 1.552.259.863.443 1.301.827 1.919l.355.575-.399.489c-3.154 3.924-3.502 9.444-.872 13.793.982 1.632 2.585 3.234 4.152 4.169l.465.273 12.743-.108.303-.165c1.056-.597 2.549-1.926 3.383-3.004a12.61 12.61 0 0 0 2.423-5.621c.118-.74.118-2.932-.007-3.63-.377-2.149-1.182-3.989-2.453-5.621-.244-.309-.436-.568-.436-.589 0-.014.133-.237.288-.489a7.762 7.762 0 0 0 .864-1.962c.199-.719.199-2.516 0-3.234-.709-2.552-2.837-4.679-5.843-5.851C20.351.97 18.91.618 17.98.503c-.864-.101-2.999-.079-3.804.043zm4.499 1.171c3.945.769 6.833 3.184 7.365 6.16.118.668.044 1.804-.155 2.437-.199.618-.569 1.344-1.005 1.962-.177.252-.325.539-.325.633s.155.338.377.582c1.847 2.048 2.822 4.614 2.822 7.389-.007 3.155-1.219 5.922-3.553 8.093-.399.374-.968.841-1.271 1.042l-.554.374-12.211.05-.473-.302c-1.714-1.114-3.258-2.954-4.115-4.909-1.079-2.472-1.189-5.34-.31-7.913.465-1.337 1.086-2.429 2.031-3.579.384-.46.561-.733.561-.863 0-.108-.192-.46-.443-.827-.886-1.287-1.248-2.717-1.034-4.068.222-1.366.842-2.487 1.987-3.601 1.492-1.445 3.575-2.401 6.02-2.76 1.012-.151 3.25-.093 4.285.101z"/><path d="M14.51 2.983c-3.029.496-5.4 2.178-6.176 4.384-.177.496-.207.69-.207 1.402s.03.906.207 1.402c.111.316.318.755.458.978.384.618.554.64 1.315.18a11.949 11.949 0 0 1 3.804-1.488c.916-.187 2.674-.259 3.671-.144 1.559.18 3.25.74 4.602 1.538.384.223.776.41.872.41.561 0 1.278-1.617 1.278-2.875 0-2.796-2.674-5.189-6.464-5.786-.805-.129-2.585-.129-3.361 0zm3.656 1.15c1.271.273 2.438.791 3.317 1.473 1.182.913 1.817 2.185 1.714 3.414-.037.489-.222 1.15-.332 1.222-.029.014-.443-.158-.916-.388a14.721 14.721 0 0 0-3.228-1.1c-.687-.144-.975-.165-2.512-.158-1.514 0-1.832.022-2.489.158a13.254 13.254 0 0 0-3.117 1.064c-1.101.525-1.042.532-1.241-.115-.258-.841-.096-1.955.406-2.796.266-.446.997-1.186 1.529-1.553 1.012-.697 1.899-1.013 3.804-1.358.391-.072 2.563.029 3.066.137zm-1.204 9.272c-.207.259-.207.503.007.712.14.137.281.173.79.208.99.072 1.935.359 2.785.848.606.359 1.529 1.229 1.943 1.854.613.898 1.034 2.185 1.034 3.134 0 .331.029.431.185.575.236.237.547.237.776 0 .163-.165.17-.208.125-.913-.207-3.479-3.184-6.382-6.744-6.577l-.739-.043-.163.201z"/></symbol><symbol id="icon-contacts-btn-arrow" viewBox="0 0 32 32"><path d="M8.509 3.253A2.154 2.154 0 0 0 8 4.649v.024-.001c0 .531.184 1.04.509 1.416l8.621 9.925-8.621 9.92a2.163 2.163 0 0 0-.488 1.374v.042-.002c.003.525.187 1.027.509 1.4s.76.581 1.216.587a1.62 1.62 0 0 0 1.225-.561l.002-.002 9.851-11.341c.317-.374.509-.863.509-1.396v-.021.001c0-.533-.184-1.043-.509-1.419L10.973 3.254a1.634 1.634 0 0 0-1.231-.587h-.001a1.64 1.64 0 0 0-1.232.587z"/></symbol><symbol id="icon-arrow" viewBox="0 0 32 32"><path d="M10.586 3.272a2 2 0 0 0 0 2.828l9.9 9.9-9.9 9.9a1.998 1.998 0 0 0 .025 2.804 2.001 2.001 0 0 0 2.804.025l11.314-11.314a2 2 0 0 0 0-2.828L13.415 3.273a2 2 0 0 0-2.828 0z"/></symbol><symbol id="icon-contact-arrow-right" viewBox="0 0 32 32"><path d="m19.414 27.414 10-10a2 2 0 0 0 0-2.828l-10-10a2 2 0 1 0-2.828 2.828L23.172 14H4a2 2 0 1 0 0 4h19.172l-6.586 6.586c-.39.39-.586.902-.586 1.414s.195 1.024.586 1.414a2 2 0 0 0 2.828 0z"/></symbol><symbol id="icon-contact-arrow-left" viewBox="0 0 32 32"><path d="m12.586 27.414-10-10a2 2 0 0 1 0-2.828l10-10a2 2 0 1 1 2.828 2.828L8.828 14H28a2 2 0 1 1 0 4H8.828l6.586 6.586c.39.39.586.902.586 1.414s-.195 1.024-.586 1.414a2 2 0 0 1-2.828 0z"/><symbol id="icon-Arrow_tool" viewBox="0 0 82 32"><path d="M81.414 17.414a2 2 0 0 0 0-2.828L68.686 1.858a2 2 0 1 0-2.828 2.828L77.172 16 65.858 27.314a2 2 0 1 0 2.828 2.828l12.728-12.728zM0 18h80v-4H0v4z"/></symbol><symbol id="icon-form-icon-buynow" viewBox="0 0 32 32"><path d="M24.084 9.6c.076-.42.119-.903.119-1.396v-.001C24.203 3.68 20.523 0 16 0S7.797 3.68 7.797 8.203c0 .471.04.938.119 1.397h-.852l6.084 20.279c.381 1.269 1.527 2.122 2.852 2.122s2.471-.853 2.852-2.122L24.936 9.6h-.852zM16 2.087A6.123 6.123 0 0 1 21.955 9.6h-3.269v2.797a.6.6 0 0 1-1.198 0V9.6h-7.442a6.123 6.123 0 0 1 5.955-7.513zm.853 27.192c-.114.38-.457.634-.853.634s-.739-.255-.853-.635L9.869 11.686h5.532v.71c0 1.481 1.205 2.686 2.686 2.686s2.686-1.205 2.686-2.686v-.71h1.358l-5.277 17.592z"/><path d="M10.58 8.203h2.087A3.337 3.337 0 0 1 16 4.87V2.783a5.426 5.426 0 0 0-5.42 5.42z"/></symbol><symbol id="icon-modal-icecream-one" viewBox="0 0 32 32"><path d="M23.386 21.229v-.001l-.676-14.23a.582.582 0 0 0-.584-.557.584.584 0 0 0-.447.208l-.001.001c-.195.229-.561.399-1.003.193-.217-.101-.407-.492-.409-.809.004-.031.01-.068.007-.181a.534.534 0 0 0-.285-.457l-.003-.001a.527.527 0 0 0-.543.031l.002-.001c-.511.34-.947.479-1.332.422a1.878 1.878 0 0 1-1.557-1.556c-.07-.477.032-.938.294-1.332.115-.172.106-.394-.001-.571s-.318-.272-.525-.254a.793.793 0 0 1-.665-.277.803.803 0 0 1-.065-.954.58.58 0 0 0 .021-.601l.002.003a.633.633 0 0 0-.514-.303h-3.443a2.136 2.136 0 0 0-2.133 2.034l-.912 19.195c-.027.59.182 1.15.589 1.577s.955.661 1.543.661h3.12v6.933c0 .882.718 1.6 1.6 1.6h1.067c.882 0 1.6-.718 1.6-1.6v-6.933h3.12c.589 0 1.137-.235 1.543-.661s.617-.987.589-1.577zM17.067 30.4a.533.533 0 0 1-.533.533h-1.067a.533.533 0 0 1-.533-.533v-6.933h2.133V30.4zm4.959-8.331a1.054 1.054 0 0 1-.768.331H10.747c-.294 0-.569-.117-.772-.331a1.06 1.06 0 0 1-.297-.737l.001-.056v.003l.911-19.194a1.07 1.07 0 0 1 1.067-1.019h2.758a1.895 1.895 0 0 0 .405 1.451c.206.261.479.453.791.566A2.928 2.928 0 0 0 17.956 6.9c.441.064.89-.001 1.361-.199.155.462.459.898.905 1.106.48.224 1.002.246 1.461.085l.636 13.386a1.06 1.06 0 0 1-.295.79z"/></symbol><symbol id="icon-modal-icecream-two" viewBox="0 0 32 32"><path d="m20.557 21.302 1.265-.542a.533.533 0 0 0 .18-.127c1.92-2.068 2.273-5.586 1.081-10.757a20.649 20.649 0 0 0-.279-1.116l.041.172a.532.532 0 0 0-.164-.261l-.001-.001c-1.397-1.213-3.288-4.663-3.202-6.273l.001-.029a.535.535 0 0 0-.141-.362C18.03.586 16.583-.105 15.171.01a.508.508 0 0 0-.145.032L10.948 1.61c-1.302.448-2.211 1.907-2.561 4.158-.343 2.204-.129 4.946.602 7.72s1.898 5.265 3.283 7.013c1.25 1.577 2.575 2.41 3.799 2.41.227 0 .45-.028.668-.086.19-.05.371-.125.545-.216l1.933 7.94c.21.862.828 1.449 1.474 1.449.089 0 .176-.011.259-.032l-.007.002.784-.191c.386-.094.694-.398.846-.835.125-.362.138-.794.034-1.218L20.556 21.3zm1.487-11.186c1.091 4.728.846 7.907-.749 9.71l-2.478 1.062c.301-.63.526-1.396.665-2.285.339-2.176.132-4.877-.577-7.615l3.044-1.256c.032.128.066.255.095.384zm-2.316-3.654c.497.899 1.073 1.737 1.618 2.365l-3.03 1.25c-.584-.374-1.135-1.003-1.602-1.75l.737-.737.722.362c.241.12.533.043.682-.181l.872-1.308zm-.55-1.097-.947 1.421-.645-.323a.533.533 0 0 0-.615.1l-.788.788c-.499-1.049-.821-2.182-.861-3.092l3.182-.904c.123.628.363 1.318.674 2.009zm-3.85-4.295c1.125-.058 2.115.589 2.842 1.273l-3.122.897c-.589-.631-1.191-1.099-1.786-1.395l2.067-.775zm1.141 20.728c-.951.249-2.176-.462-3.36-1.956-1.296-1.636-2.393-3.988-3.088-6.623s-.901-5.223-.58-7.285c.293-1.883 1.007-3.107 1.959-3.359.117-.032.251-.05.389-.05h.005c.736 0 1.588.488 2.455 1.412-.056 2.257 1.523 5.834 3.564 7.088l.035.129c.695 2.636.901 5.222.58 7.285-.293 1.884-1.007 3.108-1.959 3.359zm5.008 8.945-.784.191c-.06-.006-.327-.181-.437-.634l-1.955-8.03 1.263-.541 2.009 8.25c.11.453-.037.739-.096.764z"/></symbol><symbol id="icon-modal-ice-cream-three" viewBox="0 0 32 32"><path d="m27.837 10.672-.039-.433h-1.132a5.98 5.98 0 0 0-2.808-4.6 2.649 2.649 0 0 0-3.344-3.574 5.92 5.92 0 0 0-4.516-2.067 5.984 5.984 0 0 0-5.866 4.854 5.987 5.987 0 0 0-4.801 5.386H4.199l-.039.433c-.048.535-.073 1.06-.073 1.561 0 3.586 1.186 6.977 3.34 9.547 1.908 2.277 4.373 3.691 7.06 4.076v3.292h-3.826v.951h10.674v-.951h-3.827v-3.292c2.686-.386 5.152-1.799 7.06-4.076 2.154-2.57 3.34-5.961 3.34-9.547 0-.501-.024-1.026-.073-1.561zM19.76 4.437a1.253 1.253 0 0 1 .011-.111l.002-.017c.044-.306.163-.577.338-.804l-.003.004.008-.01.058-.07.013-.015c.022-.025.045-.05.069-.074l.012-.011c.027-.026.055-.052.085-.077l.002-.002.054-.044.024-.019.078-.056.024-.016c.258-.169.575-.27.915-.27h.002a1.696 1.696 0 0 1 1.561 2.356 5.578 5.578 0 0 0-1.048-.33l-.039-.007v-.013l-.297-.04a5.693 5.693 0 0 0-.699-.066h-.024l-.034-.001h-.007a6.96 6.96 0 0 0-.353.001h.01l-.031.001-.044.002-.018.001-.034.002-.152.009.019-.001-.042.003a5.73 5.73 0 0 0-.23.022l.027-.003-.01.001a5.958 5.958 0 0 0-.261.035l.034-.004-.001-.008a1.793 1.793 0 0 1-.014-.112v-.006l-.002-.023a1.19 1.19 0 0 1-.001-.227zm-.007 1.347a.636.636 0 0 1 .068-.014l.034-.005.062-.01a1.34 1.34 0 0 1 .066-.011l.027-.003.071-.009.066-.008.02-.002c.032-.004.086-.009.14-.013l.016-.001.07-.005h.002a3.48 3.48 0 0 1 .102-.005l.056-.002c.046-.002.102-.003.157-.003h.001a4.28 4.28 0 0 1 .418.019h.006c.083.007.167.017.251.028l.077.01c.41.063.778.165 1.127.306l-.033-.012.002.001c.067.027.133.055.198.084l.033.015c.061.028.12.056.18.086l.01.005a5.033 5.033 0 0 1 2.731 4.005l-8.47-.008a6.051 6.051 0 0 0-.116-.792l.007.039-.001-.003a3.951 3.951 0 0 0-.041-.183l.008.041-.004-.017a5.4 5.4 0 0 0-.041-.167l.009.041-.01-.036a4.104 4.104 0 0 0-.029-.105l-.024-.081.007.025-.025-.081a3.456 3.456 0 0 1-.025-.078l-.018-.055c-.024-.075-.037-.109-.049-.142l.013.041-.01-.027a5.862 5.862 0 0 0-.355-.788l.016.031a5.045 5.045 0 0 1 3.083-2.088l.042-.009.021-.004.05-.009zM16 .951c1.421 0 2.741.584 3.69 1.618l-.015.014a2.727 2.727 0 0 0-.213.217l-.003.003-.054.063-.022.028-.063.081-.014.02a1.952 1.952 0 0 0-.06.086l-.006.009-.008.012-.062.099-.007.013c-.178.299-.3.651-.342 1.028l-.001.012-.001.007c-.004.03-.007.073-.01.116v.007l-.001.018a3.014 3.014 0 0 0-.001.274V4.67l.003.044c.002.027.003.055.006.082l.006.052.009.074.009.052.01.061a5.914 5.914 0 0 0-2.852 2.008A5.911 5.911 0 0 0 11.9 4.774l-.009-.001-.131-.012-.048-.003-.091-.006-.013-.001-.084-.004-.074-.003a8.22 8.22 0 0 0-.321 0 5.033 5.033 0 0 1 4.87-3.793zm-5.466 4.798.078-.011a4.29 4.29 0 0 1 .279-.03l.019-.001.076-.005.09-.005h.011a4.08 4.08 0 0 1 .201-.005h.001c.074 0 .147.002.22.005l.046.002a5.033 5.033 0 0 1 4.547 3.582l.016.054a6.138 6.138 0 0 1 .061.235c.013.054.024.109.035.164l.015.078c.009.046.016.093.023.139l.011.069c.007.041.015.109.022.178l.002.021.002.019H6.288a5.034 5.034 0 0 1 4.247-4.491zm6.026 23.399h-1.12v-3.199c.092.005.185.009.277.011l.142.002.14.002.143-.002.14-.002c.093-.002.185-.006.277-.011v3.199zm10.397-16.729H14.954v.95h11.961c-.22 2.937-1.292 5.673-3.075 7.801-1.816 2.168-4.174 3.484-6.73 3.78l-.075.008-.057.006a9.148 9.148 0 0 1-.238.021l-.014.001a8.797 8.797 0 0 1-.229.015l-.059.003c-.062.003-.124.006-.186.007-.085.002-.169.004-.254.004s-.169-.001-.254-.004l-.185-.007-.06-.003a12.738 12.738 0 0 1-.263-.017l.036.002-.016-.001a9.315 9.315 0 0 1-.235-.021l-.07-.007-.063-.006c-2.556-.296-4.914-1.612-6.731-3.78-2.011-2.4-3.118-5.573-3.118-8.937 0-.337.012-.686.035-1.043h21.848c.023.356.035.706.035 1.043l-.002.186z"/><path d="M9.053 12.419h4.635v.95H9.053zm-.569 18.63h15.032V32H8.484z"/></symbol><symbol id="icon-form-ice-cream-icon" viewBox="0 0 32 32"><path d="M26.839 12.387c0-.074-.012-.145-.022-.216-.211-2.908-2.337-5.335-5.171-5.898A5.684 5.684 0 0 0 16.001.001a5.684 5.684 0 0 0-5.65 6.218 5.683 5.683 0 0 0-5.189 5.653v6.71c0 1.139.926 2.064 2.064 2.064s2.064-.926 2.064-2.064c0-.202.06-.389.161-.548l5.559 13.138c.116.269.356.829.99.829s.875-.56.985-.817l5.724-12.49v-.036c2.412-.935 4.129-3.274 4.129-6.012 0-.087-.008-.172-.012-.258h.012zm-1.335-1.527c-.07-.01-.14-.022-.214-.022a1.55 1.55 0 0 0-1.548 1.548 1.033 1.033 0 0 1-2.064 0v-1.548c0-.825-.525-1.449-1.124-1.785a5.642 5.642 0 0 0 .888-1.77c1.914.379 3.443 1.773 4.062 3.577zM16 1.032c2.562 0 4.645 2.084 4.645 4.645S18.561 10.322 16 10.322c-2.562 0-4.645-2.084-4.645-4.645S13.439 1.032 16 1.032zM12.258 22.02l1.419-1.419 1.077 1.077-1.855 1.856-.64-1.513zm1.075 2.538.087-.087 1.077 1.077-.523.523-.64-1.513zm2.709 6.206c-.016.036-.029.067-.042.093l-.041-.09-1.553-3.669.819-.819.925.925.73-.73-.925-.926 1.442-1.442-.73-.73-1.442 1.442-1.077-1.077 3.764-3.764-.73-.73-1.7 1.7-1.077-1.077.925-.925-.73-.73-.925.925-.925-.925-.73.73.925.925-1.123 1.123-1.466-3.466a5.655 5.655 0 0 0 4.494-1.646 6.393 6.393 0 0 0 5.534 3.215c.356 0 .703-.037 1.045-.092l-5.39 11.76zm4.345-12.7c-2.059 0-3.923-1.188-4.826-3.047a5.638 5.638 0 0 0 .955-3.146h-1.032a4.65 4.65 0 0 1-4.645 4.645 4.602 4.602 0 0 1-2.787-.929l-.62.825c.429.323.896.575 1.387.762a2.052 2.052 0 0 0-.561 1.405 1.033 1.033 0 0 1-2.064 0v-6.71a4.648 4.648 0 0 1 4.353-4.63c.681 2.372 2.866 4.114 5.453 4.114a5.647 5.647 0 0 0 3.831-1.5c.332.115.814.445.814.984v1.549c0 1.139.926 2.064 2.064 2.064s2.065-.926 2.065-2.064a.51.51 0 0 1 1.017-.076c.007.111.016.221.016.334a5.425 5.425 0 0 1-5.419 5.419z"/><path d="M15.484 1.548h1.032V2.58h-1.032V1.548zm-2.065 1.033h1.032v1.032h-1.032V2.581zm4.645 1.548h1.032v1.032h-1.032V4.129zM7.742 9.806h1.032v1.032H7.742V9.806zM9.29 8.258h1.032V9.29H9.29V8.258zM22.71 9.29h1.032v1.032H22.71V9.29zm-5.162 3.097h1.032v1.032h-1.032v-1.032z"/></symbol></symbol></defs></svg>