<svg xmlns="http://www.w3.org/2000/svg" aria-hidden="true" style="position:absolute;width:0;height:0;overflow:hidden">
  <defs>
    <symbol id="icon-clarity_close-line" viewBox="0 0 32 32">
      <path d="m17.253 16 7.369-7.369a.885.885 0 0 0-.047-1.206.893.893 0 0 0-1.207-.047l-7.369 7.369L8.63 7.369a.892.892 0 0 0-1.262 1.262L14.746 16l-7.378 7.369a.891.891 0 0 0-.05 1.304.906.906 0 0 0 .663.26.88.88 0 0 0 .641-.31L16 17.254l7.369 7.369a.886.886 0 0 0 1.207-.047.893.893 0 0 0 .047-1.207L17.254 16z"/>
    </symbol>
    <symbol id="icon-cow" viewBox="0 0 31 32">
      <path d="M6.002.778c-.254.219-.979 1.733-1.24 2.559-.31 1.024-.416 1.791-.373 2.852.056 1.514.437 2.661 1.275 3.861.218.314.394.585.394.607 0 .015-.134.029-.303.029-.726 0-2.085.241-3.128.556C.972 11.739 0 12.609 0 13.582c0 .344.31.929.641 1.228.641.578 2.043 1.126 3.55 1.389.521.095 2.071.256 2.416.263.063 0 .085.336.085 1.44 0 .951.035 1.689.106 2.142.254 1.623 1.043 3.341 2.085 4.555l.359.417-.24.387c-.352.548-.486.965-.528 1.587-.106 1.492.824 2.815 2.62 3.744 3.423 1.777 8.742 1.082 10.735-1.404.972-1.214 1.085-2.603.317-3.861l-.239-.388.43-.519c.803-.965 1.324-1.93 1.719-3.151.331-1.038.458-2.04.458-3.627 0-.724.021-1.323.056-1.323.324-.007 1.881-.175 2.374-.263 1.515-.263 2.888-.804 3.55-1.389.331-.3.641-.885.641-1.228 0-1.082-1.099-1.96-3.142-2.486-.669-.175-1.93-.387-2.543-.424l-.289-.022.317-.439c.394-.534.888-1.572 1.078-2.252.535-1.967.204-4.255-.944-6.442-.479-.907-.81-1.119-1.198-.76-.148.139-.211.329-.352 1.016-.437 2.186-1.247 3.919-2.43 5.199l-.521.57H9.967l-.465-.505c-1.155-1.272-1.993-3.071-2.43-5.264-.141-.687-.204-.877-.352-1.016-.232-.212-.458-.205-.718.022zm.901 4.336c.373.819.838 1.587 1.388 2.296l.437.563-.458.344a4.6 4.6 0 0 0-1.141 1.331l-.134.241-.338-.461c-1.155-1.594-1.444-3.546-.831-5.571.296-.98.289-.972.556-.124.127.409.366 1.031.521 1.382zm18.336-1.543a7.22 7.22 0 0 1 .402 2.464c0 1.331-.352 2.457-1.092 3.466l-.331.453-.247-.417a4.38 4.38 0 0 0-1.233-1.353c-.19-.124-.338-.249-.338-.263 0-.022.134-.19.303-.373.782-.87 1.62-2.435 2.036-3.78.127-.417.254-.76.275-.76s.127.256.225.563zM21.64 8.916c.782.329 1.529 1.272 1.648 2.069.063.439.211.717.402.76.084.015.669.066 1.296.11 2.226.146 3.98.621 4.727 1.272.345.307.31.563-.106.877-.831.629-2.627 1.104-4.459 1.184-1.212.051-1.465.088-1.627.256-.12.124-.134.256-.134 1.579 0 1.791-.092 2.822-.317 3.656-.317 1.133-.944 2.34-1.677 3.195l-.303.351-.627-.373a7.77 7.77 0 0 0-2.325-.943c-2.67-.636-5.621-.249-7.608 1.002l-.458.293-.289-.344c-.394-.461-1.014-1.448-1.261-2.003-.542-1.258-.704-2.281-.704-4.533 0-2.186.113-2.025-1.507-2.113-2.071-.11-3.649-.483-4.642-1.111-.733-.468-.613-.885.409-1.375.979-.475 2.325-.76 4.191-.877 1.451-.095 1.486-.117 1.62-.819.197-1.06.979-1.938 1.965-2.215.246-.073 1.627-.088 5.854-.08l5.53.015.401.168zm-3.959 15.135c1.726.424 3.015 1.214 3.571 2.193.134.227.19.461.218.819.028.446.007.556-.162.921-.782 1.66-3.656 2.756-6.579 2.508-3.515-.293-5.826-2.252-4.917-4.175.493-1.038 2.163-2.033 3.924-2.325.289-.044.578-.095.634-.11s.69-.015 1.409 0c.979.022 1.451.066 1.902.168z"/>
      <path d="M10.693 12.579c-.437.146-.733.336-1.127.731-.345.329-.373.717-.085.95.268.219.521.19.845-.095.409-.358.726-.505 1.12-.505.394-.007.697.132 1.12.505.324.285.578.314.845.095.141-.117.183-.212.183-.431 0-.227-.049-.329-.296-.578-.697-.702-1.733-.972-2.606-.673zM18.906 12.571c-.451.168-1.029.548-1.261.833-.225.278-.232.592 0 .826.232.249.514.234.852-.044.831-.687 1.451-.709 2.219-.073.197.168.423.3.493.3.345 0 .627-.307.627-.673 0-.234-.585-.775-1.113-1.031-.585-.285-1.282-.336-1.817-.139zM11.714 26.106c-.204.197-.275.483-.169.709.078.183.197.256.683.388.218.058.31.132.387.314.099.241.106.241.648.263l.542.022v-.205c-.007-.293-.169-.717-.38-1.009-.247-.336-.676-.556-1.162-.6-.331-.029-.416-.015-.549.117zM18.442 26.054c-.352.095-.859.57-1 .943a2.54 2.54 0 0 0-.134.665c-.014.314.014.388.183.541.416.366.965.08.965-.504 0-.285.211-.483.585-.556.394-.073.535-.234.542-.607 0-.49-.437-.68-1.141-.483z"/>
    </symbol>
    <symbol id="icon-ep_close" viewBox="0 0 32 32">
      <path fill="#fcfcfc" d="M23.884 6.706 16 14.59 8.116 6.706a.995.995 0 0 0-1.38.031 1 1 0 0 0-.031 1.38l7.88 7.884-7.882 7.882a1.002 1.002 0 0 0-.018 1.427.998.998 0 0 0 1.427-.015l7.886-7.882 7.884 7.884a1 1 0 0 0 1.38-.03 1 1 0 0 0 .03-1.38l-7.884-7.884 7.884-7.886a1.002 1.002 0 0 0 .018-1.427.998.998 0 0 0-1.427.015v.002z" style="fill:var(--color1, #fcfcfc)"/>
    </symbol>
    <symbol id="icon-modal-icon-close" viewBox="0 0 32 32">
<path d="M17.253 16l7.369-7.369c0.131-0.154 0.21-0.355 0.21-0.574 0-0.491-0.398-0.889-0.889-0.889-0.22 0-0.42 0.080-0.576 0.211l0.001-0.001-7.369 7.369-7.369-7.377c-0.164-0.18-0.399-0.292-0.661-0.292-0.493 0-0.893 0.4-0.893 0.893 0 0.261 0.112 0.496 0.291 0.659l0.001 0.001 7.379 7.369-7.379 7.369c-0.193 0.164-0.315 0.407-0.315 0.679 0 0.491 0.398 0.889 0.889 0.889 0.272 0 0.515-0.122 0.678-0.314l0.001-0.001 7.379-7.369 7.368 7.369c0.154 0.131 0.355 0.21 0.574 0.21 0.491 0 0.889-0.398 0.889-0.889 0-0.22-0.080-0.42-0.211-0.576l0.001 0.001-7.368-7.369z"></path>
</symbol>
    <symbol id="icon-eva_menu-fill" viewBox="0 0 32 32">
      <path fill="#fff" d="M26.733 14.667H5.266c-.7 0-1.267.567-1.267 1.267v.133c0 .7.567 1.267 1.267 1.267h21.467c.7 0 1.267-.567 1.267-1.267v-.133c0-.7-.567-1.267-1.267-1.267zM26.733 21.333H5.266c-.7 0-1.267.567-1.267 1.267v.133c0 .7.567 1.267 1.267 1.267h21.467c.7 0 1.267-.567 1.267-1.267V22.6c0-.7-.567-1.267-1.267-1.267zM26.733 8H5.266c-.7 0-1.267.567-1.267 1.267V9.4c0 .7.567 1.267 1.267 1.267h21.467c.7 0 1.267-.567 1.267-1.267v-.133C28 8.567 27.433 8 26.733 8z" style="fill:var(--color2, #fff)"/>
    </symbol>
    <symbol id="icon-facebook" viewBox="0 0 32 32">
      <path fill="#f8d24e" d="M16 32c8.837 0 16-7.163 16-16S24.837 0 16 0 0 7.163 0 16s7.163 16 16 16z" style="fill:var(--color3, #f8d24e)"/>
      <path d="M20.446 15.982h-2.61V25.6h-3.955v-9.618H12v-3.38h1.881v-2.187c0-1.564.739-4.014 3.99-4.014l2.929.012v3.281h-2.125c-.349 0-.839.175-.839.921v1.989h2.955l-.346 3.377z"/>
    </symbol>
    <symbol id="icon-github" viewBox="0 0 32 32">
      <path fill="#f8d24e" d="M32 16c0 8.837-7.163 16-16 16S0 24.837 0 16 7.163 0 16 0s16 7.163 16 16z" style="fill:var(--color3, #f8d24e)"/>
      <path d="M16 6.588c-5.169 0-9.412 4.242-9.412 9.412 0 4.411 3.095 8.419 7.206 9.412v-3.114a2.307 2.307 0 0 1-1.197-.03c-.556-.164-1.008-.535-1.344-1.1-.214-.361-.593-.752-.988-.723l-.097-1.099c.855-.073 1.595.521 2.034 1.259.195.328.419.52.708.605.278.082.578.043.926-.08.088-.698.407-.959.648-1.326v-.001c-2.451-.366-3.428-1.666-3.816-2.693-.514-1.363-.238-3.066.671-4.142.018-.021.05-.076.037-.114-.417-1.258.091-2.299.11-2.41.481.142.559-.143 2.089.786l.264.159c.111.066.076.028.186.02A8.031 8.031 0 0 1 16 11.131a8.016 8.016 0 0 1 2.002.285l.086.009c-.007-.001.023-.005.075-.036 1.911-1.157 1.842-.779 2.355-.946.019.111.519 1.169.107 2.411-.056.171 1.657 1.739.708 4.256-.388 1.027-1.365 2.328-3.816 2.693v.001c.314.479.692.734.69 1.722v3.887c4.111-.993 7.206-5 7.206-9.412 0-5.169-4.242-9.412-9.412-9.412z"/>
    </symbol>
    <symbol id="icon-ice-crema" viewBox="0 0 32 32">
      <path d="M16.108.107c.08.214.241 1.252.241 1.573 0 .797-.295 1.54-.837 2.122-.449.482-.897.75-1.975 1.185-1.198.489-1.694.783-2.256 1.339-.569.569-.904 1.192-1.024 1.921-.134.797 0 1.359.408 1.68l.208.161-.328.208c-.663.435-1.868 1.459-2.075 1.774-.402.603-.361 1.165.094 1.392l.214.107-.241.228c-.361.341-.435.576-.382 1.192.033.408.02.629-.074.964-.114.435-.114.442.033.75.147.301.562.683.937.843.181.08.187.107.228.723.02.355.053 1.486.08 2.517.02 1.031.067 1.975.107 2.089a.79.79 0 0 0 .274.361c.388.268.656.556.83.89.194.382.408 1.319 1.058 4.559l.455 2.276.281.268c.536.529 1.56.77 3.247.77 1.694 0 2.705-.234 3.24-.763l.288-.274.415-2.109c.917-4.613.997-4.867 1.714-5.436.221-.181.435-.402.475-.502.047-.114.094-.991.127-2.316.027-1.178.067-2.343.094-2.591l.04-.449.435-.328c.549-.422.763-.803.763-1.393-.007-.696-.462-1.459-1.292-2.142l-.395-.321.194-.274c.81-1.118.301-2.664-1.205-3.695l-.455-.315.167-.174c.743-.797.864-3.173.241-4.827-.375-.984-1.232-2.055-2.283-2.845C17.659.857 16.239 0 16.112 0c-.027 0-.027.047-.007.107zm1.928 2.336c.355.348.783.823.951 1.064.997 1.392 1.252 3.14.649 4.425-.241.522-.964 1.299-1.633 1.761-1.024.71-3.327 1.901-4.934 2.557-2.584 1.051-4.084 1.252-4.258.562-.067-.261.127-.469.951-1.018.743-.509 4.077-2.986 4.137-3.086.02-.027-.321.127-.75.341-1.453.736-2.142.596-2.109-.428.02-.743.556-1.587 1.299-2.069.187-.12.77-.388 1.305-.603 1.761-.71 2.296-1.071 2.892-1.962.355-.529.743-1.506.77-1.921.007-.147.034-.261.054-.261s.321.288.676.636zm1.828 7.606c.489.274.997.743 1.218 1.111.388.663.187 1.325-.649 2.169-.91.924-2.464 1.808-4.171 2.37-1.573.515-3.079.756-5.235.83l-1.339.047.87.054c1.125.074 3.3.007 4.144-.127 2.243-.355 4.151-1.064 5.516-2.042.308-.221.629-.402.716-.402.221 0 1.185.924 1.379 1.312.107.221.134.382.114.596-.1.89-1.185 1.366-3.802 1.68-3.2.382-7.384.007-9.172-.817-.844-.388-.984-.609-.77-1.198.067-.187.08-.408.054-.723-.033-.415-.027-.469.12-.623.335-.361.897-.569 2.959-1.091a28.11 28.11 0 0 0 2.176-.656c1.138-.415 3.274-1.493 4.264-2.156.93-.616 1.064-.643 1.607-.335zm-8.89 8.194c1.406.408 2.651.529 4.967.482 1.741-.034 2.812-.141 4.358-.415.315-.053.589-.1.623-.1.074 0 .053 2.571-.027 3.247-.087.716-.281 1.272-.489 1.406-.214.141-1.285.288-2.718.368-2.939.161-5.958 0-6.895-.375-.509-.207-.562-.475-.569-2.959 0-1.654.013-1.881.1-1.848.053.02.348.107.649.194zm1.586 5.69c.482.06 1.004.121 1.165.141l.288.034-.254.281c-.328.355-.83 1.064-1.011 1.426-.207.415-.274.442-.582.274l-.261-.147-.147-.91c-.08-.495-.167-.971-.187-1.051-.06-.174-.12-.174.991-.047zm7.137-.074c0 .013-.033.187-.067.382-.04.201-.208 1.292-.375 2.43-.341 2.377-.569 3.495-.777 3.869-.288.502-.977.797-2.095.89-.435.034-1.747-.053-1.821-.12-.053-.06 1.098-1.486 1.279-1.58.167-.094.214-.08.783.214.663.348.997.402.997.181s-.174-.435-.602-.73c-.395-.281-.536-.442-.536-.629 0-.053.194-.355.428-.669s.576-.817.75-1.118l.328-.542.301.04c.609.087.77.08.75-.053-.013-.067-.127-.261-.254-.422-.127-.167-.228-.335-.228-.368 0-.127.623-1.299.823-1.546.174-.214.315-.321.315-.228zm-4.184.536c.335.221 1.593 1.312 1.674 1.446.034.06-1.259 2.082-1.513 2.37-.027.034-.167-.033-.308-.141a22.133 22.133 0 0 0-1.165-.803l-.904-.596.542-.917c.964-1.613.944-1.587 1.151-1.587.107 0 .341.1.522.228zm2.537.241c-.234.288-.428.469-.509.469-.174 0-.455-.154-.93-.502l-.395-.288.79-.047c.428-.02.844-.047.917-.06.536-.087.536-.08.127.428zm-5.061 3.22c.616.241 1.66.81 1.962 1.064.214.174.214.187.127.402a6.675 6.675 0 0 1-.415.716c-.174.268-.375.602-.449.743-.214.415-.281.449-.723.328-.475-.141-.73-.382-.864-.817-.181-.609-.469-2.33-.435-2.598.013-.1.295-.04.797.161z"/>
    </symbol>
    <symbol id="icon-telegram" viewBox="0 0 32 32">
      <path fill="#f8d24e" d="M32 16c0 8.837-7.163 16-16 16S0 24.837 0 16 7.163 0 16 0s16 7.163 16 16z" style="fill:var(--color3, #f8d24e)"/>
      <path d="m12.869 18.375-.318 4.169c.454 0 .651-.182.887-.401l2.13-1.9 4.415 3.017c.81.421 1.38.199 1.598-.695l2.898-12.672.001-.001c.257-1.117-.433-1.554-1.222-1.28L6.226 14.698c-1.162.421-1.145 1.026-.198 1.3l4.354 1.264 10.115-5.907c.476-.294.909-.131.553.163l-8.182 6.857z"/>
    </symbol>
    <symbol id="icon-weight" viewBox="0 0 32 32">
      <path d="M14.177.547c-3.974.589-7.247 2.796-8.451 5.685-.384.913-.488 1.473-.488 2.573.007.812.037 1.114.162 1.552.259.863.443 1.301.827 1.919l.355.575-.399.489c-3.154 3.924-3.502 9.444-.872 13.793.982 1.632 2.585 3.234 4.152 4.169l.465.273 12.743-.108.303-.165c1.056-.597 2.549-1.926 3.383-3.004a12.61 12.61 0 0 0 2.423-5.621c.118-.74.118-2.932-.007-3.63-.377-2.149-1.182-3.989-2.453-5.621-.244-.309-.436-.568-.436-.589 0-.014.133-.237.288-.489a7.762 7.762 0 0 0 .864-1.962c.199-.719.199-2.516 0-3.234-.709-2.552-2.837-4.679-5.843-5.851C20.351.97 18.91.618 17.98.503c-.864-.101-2.999-.079-3.804.043zm4.499 1.171c3.945.769 6.833 3.184 7.365 6.16.118.668.044 1.804-.155 2.437-.199.618-.569 1.344-1.005 1.962-.177.252-.325.539-.325.633s.155.338.377.582c1.847 2.048 2.822 4.614 2.822 7.389-.007 3.155-1.219 5.922-3.553 8.093-.399.374-.968.841-1.271 1.042l-.554.374-12.211.05-.473-.302c-1.714-1.114-3.258-2.954-4.115-4.909-1.079-2.472-1.189-5.34-.31-7.913.465-1.337 1.086-2.429 2.031-3.579.384-.46.561-.733.561-.863 0-.108-.192-.46-.443-.827-.886-1.287-1.248-2.717-1.034-4.068.222-1.366.842-2.487 1.987-3.601 1.492-1.445 3.575-2.401 6.02-2.76 1.012-.151 3.25-.093 4.285.101z"/>
      <path d="M14.51 2.983c-3.029.496-5.4 2.178-6.176 4.384-.177.496-.207.69-.207 1.402s.03.906.207 1.402c.111.316.318.755.458.978.384.618.554.64 1.315.18a11.949 11.949 0 0 1 3.804-1.488c.916-.187 2.674-.259 3.671-.144 1.559.18 3.25.74 4.602 1.538.384.223.776.41.872.41.561 0 1.278-1.617 1.278-2.875 0-2.796-2.674-5.189-6.464-5.786-.805-.129-2.585-.129-3.361 0zm3.656 1.15c1.271.273 2.438.791 3.317 1.473 1.182.913 1.817 2.185 1.714 3.414-.037.489-.222 1.15-.332 1.222-.029.014-.443-.158-.916-.388a14.721 14.721 0 0 0-3.228-1.1c-.687-.144-.975-.165-2.512-.158-1.514 0-1.832.022-2.489.158a13.254 13.254 0 0 0-3.117 1.064c-1.101.525-1.042.532-1.241-.115-.258-.841-.096-1.955.406-2.796.266-.446.997-1.186 1.529-1.553 1.012-.697 1.899-1.013 3.804-1.358.391-.072 2.563.029 3.066.137zM16.962 13.405c-.207.259-.207.503.007.712.14.137.281.173.79.208.99.072 1.935.359 2.785.848.606.359 1.529 1.229 1.943 1.854.613.898 1.034 2.185 1.034 3.134 0 .331.029.431.185.575.236.237.547.237.776 0 .163-.165.17-.208.125-.913-.207-3.479-3.184-6.382-6.744-6.577l-.739-.043-.163.201z"/>
    </symbol>
    <symbol id="icon-contacts-btn-arrow" viewBox="0 0 32 32">
      <path d="M8.509 3.253c-0.317 0.374-0.509 0.863-0.509 1.396 0 0.008 0 0.016 0 0.024v-0.001c0 0.531 0.184 1.040 0.509 1.416l8.621 9.925-8.621 9.92c-0.304 0.371-0.488 0.851-0.488 1.374 0 0.014 0 0.028 0 0.042l-0-0.002c0.003 0.525 0.187 1.027 0.509 1.4s0.76 0.581 1.216 0.587c0.489-0.001 0.928-0.218 1.225-0.561l0.002-0.002 9.851-11.341c0.317-0.374 0.509-0.863 0.509-1.396 0-0.007-0-0.014-0-0.021v0.001c0-0.533-0.184-1.043-0.509-1.419l-9.851-11.341c-0.297-0.354-0.738-0.58-1.231-0.587h-0.001c-0.461 0-0.907 0.213-1.232 0.587z"></path>
    </symbol>
    <symbol id="icon-arrow" viewBox="0 0 32 32">
    <path d="M10.586 3.272c-0.375 0.375-0.586 0.884-0.586 1.414s0.211 1.039 0.586 1.414l9.9 9.9-9.9 9.9c-0.364 0.377-0.566 0.882-0.561 1.407s0.215 1.026 0.586 1.397 0.872 0.581 1.397 0.586c0.524 0.005 1.030-0.197 1.407-0.561l11.314-11.314c0.375-0.375 0.586-0.884 0.586-1.414s-0.211-1.039-0.586-1.414l-11.314-11.314c-0.375-0.375-0.884-0.586-1.414-0.586s-1.039 0.211-1.414 0.586z"></path>
    </symbol>
    <symbol id="icon-contact-arrow-right" viewBox="0 0 32 32">
      <path d="m19.414 27.414 10-10a2 2 0 0 0 0-2.828l-10-10a2 2 0 1 0-2.828 2.828L23.172 14H4a2 2 0 1 0 0 4h19.172l-6.586 6.586c-.39.39-.586.902-.586 1.414s.195 1.024.586 1.414a2 2 0 0 0 2.828 0z"/>
    </symbol>
    <symbol id="icon-contact-arrow-left" viewBox="0 0 32 32">
      <path d="m12.586 27.414-10-10a2 2 0 0 1 0-2.828l10-10a2 2 0 1 1 2.828 2.828L8.828 14H28a2 2 0 1 1 0 4H8.828l6.586 6.586c.39.39.586.902.586 1.414s-.195 1.024-.586 1.414a2 2 0 0 1-2.828 0z"/>
    <symbol id="icon-Arrow_tool" viewBox="0 0 82 32">
      <path d="M81.414 17.414a2 2 0 0 0 0-2.828L68.686 1.858a2 2 0 1 0-2.828 2.828L77.172 16 65.858 27.314a2 2 0 1 0 2.828 2.828l12.728-12.728zM0 18h80v-4H0v4z"/>
    </symbol>
    <symbol id="icon-form-icon-buynow" viewBox="0 0 32 32">
<path d="M24.084 9.6c0.076-0.42 0.119-0.903 0.119-1.396 0-0 0-0 0-0.001v0c0-4.523-3.68-8.203-8.203-8.203s-8.203 3.68-8.203 8.203c0 0.471 0.040 0.938 0.119 1.397h-0.852l6.084 20.279c0.381 1.269 1.527 2.122 2.852 2.122s2.471-0.853 2.852-2.122l6.084-20.279h-0.852zM16 2.087c3.372 0 6.116 2.744 6.116 6.116 0 0.474-0.055 0.941-0.161 1.397h-3.269v2.797c0 0.33-0.269 0.599-0.599 0.599s-0.599-0.269-0.599-0.599v-2.797h-7.442c-0.103-0.42-0.161-0.901-0.161-1.397v0c-0-3.372 2.743-6.116 6.116-6.116zM16.853 29.279c-0.114 0.38-0.457 0.634-0.853 0.634s-0.739-0.255-0.853-0.635l-5.278-17.592h5.532v0.71c0 1.481 1.205 2.686 2.686 2.686s2.686-1.205 2.686-2.686v-0.71h1.358l-5.277 17.592z"></path>
<path d="M10.58 8.203h2.087c0-1.838 1.495-3.333 3.333-3.333v-2.087c-2.989 0-5.42 2.431-5.42 5.42z"></path>
</symbol>
<symbol id="icon-modal-icecream-one" viewBox="0 0 32 32">
<path d="M23.386 21.229v-0.001l-0.676-14.23c-0.012-0.242-0.167-0.449-0.395-0.526-0.056-0.020-0.121-0.031-0.189-0.031-0.179 0-0.34 0.081-0.447 0.208l-0.001 0.001c-0.195 0.229-0.561 0.399-1.003 0.193-0.217-0.101-0.407-0.492-0.409-0.809 0.004-0.031 0.010-0.068 0.007-0.181-0.006-0.199-0.12-0.37-0.285-0.457l-0.003-0.001c-0.071-0.038-0.156-0.060-0.245-0.060-0.11 0-0.213 0.033-0.298 0.091l0.002-0.001c-0.511 0.34-0.947 0.479-1.332 0.422-0.787-0.115-1.442-0.769-1.557-1.556-0.070-0.477 0.032-0.938 0.294-1.332 0.115-0.172 0.106-0.394-0.001-0.571s-0.318-0.272-0.525-0.254c-0.271 0.013-0.518-0.092-0.665-0.277-0.276-0.348-0.214-0.721-0.065-0.954 0.059-0.090 0.094-0.2 0.094-0.318 0-0.103-0.026-0.199-0.073-0.283l0.002 0.003c-0.094-0.171-0.318-0.303-0.514-0.303h-3.443c-1.139 0-2.075 0.892-2.133 2.034l-0.912 19.195c-0.027 0.59 0.182 1.15 0.589 1.577s0.955 0.661 1.543 0.661h3.12v6.933c0 0.882 0.718 1.6 1.6 1.6h1.067c0.882 0 1.6-0.718 1.6-1.6v-6.933h3.12c0.589 0 1.137-0.235 1.543-0.661s0.617-0.987 0.589-1.577zM17.067 30.4c0 0.294-0.239 0.533-0.533 0.533h-1.067c-0.294 0-0.533-0.239-0.533-0.533v-6.933h2.133v6.933zM22.026 22.069c-0.193 0.204-0.466 0.331-0.768 0.331-0.001 0-0.003 0-0.004 0h-10.507c-0.294 0-0.569-0.117-0.772-0.331-0.184-0.191-0.297-0.451-0.297-0.737 0-0.019 0.001-0.038 0.001-0.056l-0 0.003 0.911-19.194c0.029-0.571 0.498-1.019 1.067-1.019h2.758c-0.072 0.501 0.065 1.022 0.405 1.451 0.206 0.261 0.479 0.453 0.791 0.566-0.141 0.433-0.181 0.897-0.114 1.359 0.185 1.263 1.196 2.274 2.459 2.458 0.441 0.064 0.89-0.001 1.361-0.199 0.155 0.462 0.459 0.898 0.905 1.106 0.48 0.224 1.002 0.246 1.461 0.085l0.636 13.386c0.014 0.296-0.091 0.577-0.295 0.79z"></path>
</symbol>
<symbol id="icon-modal-icecream-two" viewBox="0 0 32 32">
<path d="M20.557 21.302l1.265-0.542c0.071-0.031 0.131-0.074 0.18-0.127l0-0c1.92-2.068 2.273-5.586 1.081-10.757-0.109-0.485-0.191-0.802-0.279-1.116l0.041 0.172c-0.029-0.105-0.087-0.194-0.164-0.261l-0.001-0.001c-1.397-1.213-3.288-4.663-3.202-6.273 0-0.009 0.001-0.019 0.001-0.029 0-0.14-0.054-0.267-0.141-0.362l0 0c-1.308-1.42-2.755-2.111-4.167-1.996-0.050 0.004-0.099 0.014-0.145 0.032l-4.078 1.568c-1.302 0.448-2.211 1.907-2.561 4.158-0.343 2.204-0.129 4.946 0.602 7.72s1.898 5.265 3.283 7.013c1.25 1.577 2.575 2.41 3.799 2.41 0.227 0 0.45-0.028 0.668-0.086 0.19-0.050 0.371-0.125 0.545-0.216l1.933 7.94c0.21 0.862 0.828 1.449 1.474 1.449 0.089-0 0.176-0.011 0.259-0.032l-0.007 0.002 0.784-0.191c0.386-0.094 0.694-0.398 0.846-0.835 0.125-0.362 0.138-0.794 0.034-1.218l-2.051-8.424zM22.044 10.116c1.091 4.728 0.846 7.907-0.749 9.71l-2.478 1.062c0.301-0.63 0.526-1.396 0.665-2.285 0.339-2.176 0.132-4.877-0.577-7.615l3.044-1.256c0.032 0.128 0.066 0.255 0.095 0.384zM19.728 6.462c0.497 0.899 1.073 1.737 1.618 2.365l-3.030 1.25c-0.584-0.374-1.135-1.003-1.602-1.75l0.737-0.737 0.722 0.362c0.241 0.12 0.533 0.043 0.682-0.181l0.872-1.308zM19.178 5.365l-0.947 1.421-0.645-0.323c-0.206-0.102-0.454-0.062-0.615 0.1l-0.788 0.788c-0.499-1.049-0.821-2.182-0.861-3.092 0.012-0.003 3.182-0.904 3.182-0.904 0.123 0.628 0.363 1.318 0.674 2.009zM15.328 1.070c1.125-0.058 2.115 0.589 2.842 1.273 0 0-3.115 0.894-3.122 0.897-0.589-0.631-1.191-1.099-1.786-1.395l2.067-0.775zM16.469 21.798c-0.951 0.249-2.176-0.462-3.36-1.956-1.296-1.636-2.393-3.988-3.088-6.623s-0.901-5.223-0.58-7.285c0.293-1.883 1.007-3.107 1.959-3.359 0.117-0.032 0.251-0.050 0.389-0.050 0.002 0 0.004 0 0.005 0h-0c0.736 0 1.588 0.488 2.455 1.412-0.056 2.257 1.523 5.834 3.564 7.088l0.035 0.129c0.695 2.636 0.901 5.222 0.58 7.285-0.293 1.884-1.007 3.108-1.959 3.359zM21.477 30.743l-0.784 0.191c-0.060-0.006-0.327-0.181-0.437-0.634l-1.955-8.030 1.263-0.541 2.009 8.25c0.11 0.453-0.037 0.739-0.096 0.764z"></path>
</symbol>
<symbol id="icon-modal-ice-cream-three" viewBox="0 0 32 32">
<path d="M27.837 10.672l-0.039-0.433h-1.132c-0.154-1.941-1.239-3.624-2.808-4.6 0.157-0.342 0.238-0.715 0.238-1.099 0-1.459-1.187-2.646-2.646-2.646-0.329 0-0.645 0.061-0.936 0.171-1.136-1.318-2.761-2.067-4.516-2.067-2.876 0-5.336 2.063-5.866 4.854-2.592 0.509-4.588 2.701-4.801 5.386h-1.132l-0.039 0.433c-0.048 0.535-0.073 1.060-0.073 1.561 0 3.586 1.186 6.977 3.34 9.547 1.908 2.277 4.373 3.691 7.060 4.076v3.292h-3.826v0.951h10.674v-0.951h-3.827v-3.292c2.686-0.386 5.152-1.799 7.060-4.076 2.154-2.57 3.34-5.961 3.34-9.547-0-0.501-0.024-1.026-0.073-1.561zM19.76 4.437c0-0.008 0.001-0.017 0.002-0.025 0.002-0.029 0.005-0.057 0.009-0.086 0.001-0.006 0.001-0.012 0.002-0.017 0.044-0.306 0.163-0.577 0.338-0.804l-0.003 0.004c0.003-0.003 0.005-0.006 0.008-0.010 0.019-0.024 0.038-0.047 0.058-0.070l0.013-0.015c0.022-0.025 0.045-0.050 0.069-0.074 0.004-0.004 0.008-0.007 0.012-0.011 0.027-0.026 0.055-0.052 0.085-0.077l0.002-0.002c0.018-0.015 0.036-0.030 0.054-0.044 0.008-0.006 0.016-0.013 0.024-0.019 0.026-0.019 0.052-0.038 0.078-0.056 0.008-0.005 0.016-0.010 0.024-0.016 0.258-0.169 0.575-0.27 0.915-0.27 0.001 0 0.001 0 0.002 0h-0c0.935-0 1.695 0.76 1.695 1.695 0 0.23-0.046 0.454-0.134 0.661-0.308-0.134-0.671-0.25-1.048-0.33l-0.039-0.007v-0.013l-0.297-0.040c-0.206-0.034-0.451-0.057-0.699-0.066l-0.010-0-0.006-0v-0c-0.003-0-0.006-0-0.008-0-0.011-0-0.022-0.001-0.034-0.001-0.003-0-0.005-0-0.007-0-0.045-0.001-0.099-0.002-0.152-0.002-0.067 0-0.134 0.001-0.201 0.003l0.010-0c-0.010 0-0.021 0.001-0.031 0.001-0.015 0-0.029 0.001-0.044 0.002l-0.018 0.001c-0.011 0-0.022 0.001-0.034 0.002-0.060 0.003-0.106 0.006-0.152 0.009l0.019-0.001c-0.014 0.001-0.028 0.002-0.042 0.003-0.091 0.007-0.161 0.014-0.23 0.022l0.027-0.003c-0.003 0-0.007 0.001-0.010 0.001-0.106 0.012-0.184 0.023-0.261 0.035l0.034-0.004-0.001-0.008c-0.005-0.030-0.010-0.071-0.014-0.112l-0-0.006c-0.001-0.008-0.001-0.015-0.002-0.023-0.003-0.037-0.005-0.080-0.005-0.123v-0c0-0.035 0.001-0.070 0.004-0.104zM19.753 5.784c-0.001-0.001 0.034-0.008 0.068-0.014l0.034-0.005c0.021-0.004 0.041-0.007 0.062-0.010v0c0.002-0.001 0.034-0.006 0.066-0.011l0.027-0.003c0.024-0.003 0.047-0.006 0.071-0.009 0.007-0.001 0.037-0.005 0.066-0.008l0.020-0.002v-0c0.032-0.004 0.086-0.009 0.14-0.013l0.016-0.001c0.023-0.002 0.047-0.004 0.070-0.005l0.002-0c0.034-0.002 0.068-0.004 0.102-0.005 0.019-0.001 0.037-0.002 0.056-0.002 0.046-0.002 0.102-0.003 0.157-0.003h0.001c0.066 0 0.132 0.002 0.197 0.005 0.073 0.003 0.147 0.007 0.221 0.014l0.006 0c0.083 0.007 0.167 0.017 0.251 0.028l0.077 0.010c0.41 0.063 0.778 0.165 1.127 0.306l-0.033-0.012 0.002 0.001c0.067 0.027 0.133 0.055 0.198 0.084l0.033 0.015c0.061 0.028 0.12 0.056 0.18 0.086l0.010 0.005c1.498 0.762 2.566 2.254 2.731 4.005l-8.47-0.008c-0.023-0.283-0.062-0.541-0.116-0.792l0.007 0.039-0.001-0.003c-0.018-0.087-0.029-0.136-0.041-0.183l0.008 0.041-0.004-0.017c-0.019-0.082-0.030-0.125-0.041-0.167l0.009 0.041c-0.003-0.012-0.006-0.024-0.010-0.036-0.009-0.035-0.019-0.070-0.029-0.105-0.012-0.044-0.018-0.062-0.024-0.081l0.007 0.025c-0.008-0.027-0.016-0.054-0.025-0.081s-0.017-0.052-0.025-0.078c-0.006-0.018-0.012-0.037-0.018-0.055-0.024-0.075-0.037-0.109-0.049-0.142l0.013 0.041-0.010-0.027c-0.11-0.299-0.225-0.548-0.355-0.788l0.016 0.031c0.722-1.061 1.831-1.815 3.083-2.088 0.014-0.003 0.028-0.006 0.042-0.009l0.021-0.004c0.017-0.003 0.034-0.006 0.050-0.009zM16 0.951c1.421 0 2.741 0.584 3.69 1.618-0.005 0.005-0.010 0.009-0.015 0.014s-0.009 0.009-0.014 0.013c-0.071 0.066-0.137 0.133-0.199 0.204l-0.003 0.003c-0.018 0.021-0.036 0.041-0.054 0.063-0.008 0.009-0.015 0.019-0.022 0.028-0.021 0.027-0.042 0.054-0.063 0.081-0.005 0.006-0.009 0.013-0.014 0.020-0.017 0.023-0.039 0.054-0.060 0.086l-0.006 0.009-0.008 0.012c-0.017 0.026-0.040 0.062-0.062 0.099l-0.007 0.013c-0.178 0.299-0.3 0.651-0.342 1.028l-0.001 0.012-0.001 0.007c-0.004 0.030-0.007 0.073-0.010 0.116l-0 0.007c-0 0.006-0.001 0.012-0.001 0.018-0.002 0.042-0.004 0.092-0.004 0.141 0 0.044 0.001 0.089 0.003 0.133l-0-0.006c0.001 0.015 0.002 0.030 0.003 0.044 0.002 0.027 0.003 0.055 0.006 0.082 0.002 0.017 0.004 0.035 0.006 0.052 0.003 0.025 0.005 0.049 0.009 0.074 0.003 0.017 0.006 0.035 0.009 0.052 0.003 0.020 0.006 0.041 0.010 0.061-1.122 0.364-2.113 1.056-2.852 2.008-1.002-1.292-2.47-2.105-4.098-2.269l-0.009-0.001c-0.044-0.004-0.087-0.008-0.131-0.012-0.016-0.001-0.032-0.002-0.048-0.003-0.019-0.002-0.055-0.004-0.091-0.006l-0.013-0.001c-0.028-0.001-0.056-0.003-0.084-0.004-0.025-0.001-0.049-0.002-0.074-0.003-0.048-0.001-0.106-0.002-0.163-0.002h-0c-0.053 0-0.106 0.001-0.158 0.002 0.553-2.199 2.551-3.793 4.87-3.793zM10.534 5.749l0.078-0.011c0.074-0.011 0.176-0.022 0.279-0.030l0.019-0.001c0.025-0.002 0.051-0.004 0.076-0.005 0.020-0.001 0.055-0.003 0.090-0.005l0.011-0c0.059-0.003 0.13-0.005 0.201-0.005h0.001c0.074 0 0.147 0.002 0.22 0.005 0.015 0.001 0.031 0.001 0.046 0.002 2.082 0.109 3.832 1.492 4.484 3.382 0.004 0.010 0.007 0.020 0.010 0.031 0.019 0.056 0.037 0.112 0.053 0.169 0.005 0.018 0.011 0.036 0.016 0.054 0.018 0.064 0.036 0.129 0.052 0.194 0.003 0.014 0.006 0.028 0.009 0.041 0.013 0.054 0.024 0.109 0.035 0.164 0.005 0.026 0.010 0.052 0.015 0.078 0.009 0.046 0.016 0.093 0.023 0.139 0.004 0.023 0.007 0.046 0.011 0.069 0.007 0.041 0.015 0.109 0.022 0.178l0.002 0.021c0.001 0.007 0.001 0.013 0.002 0.019h-10.001c0.217-2.297 1.987-4.149 4.247-4.491zM16.56 29.148h-1.12v-3.199c0.092 0.005 0.185 0.009 0.277 0.011 0.047 0.001 0.095 0.001 0.142 0.002s0.093 0.002 0.14 0.002c0.048 0 0.095-0.001 0.143-0.002 0.047-0.001 0.093-0.001 0.14-0.002 0.093-0.002 0.185-0.006 0.277-0.011v3.199zM26.957 12.419h-12.003v0.95h11.961c-0.22 2.937-1.292 5.673-3.075 7.801-1.816 2.168-4.174 3.484-6.73 3.78l-0.075 0.008-0.057 0.006c-0.079 0.008-0.158 0.015-0.238 0.021l-0.014 0.001c-0.076 0.006-0.153 0.011-0.229 0.015-0.020 0.001-0.039 0.002-0.059 0.003-0.062 0.003-0.124 0.006-0.186 0.007-0.085 0.002-0.169 0.004-0.254 0.004s-0.169-0.001-0.254-0.004c-0.061-0.002-0.123-0.004-0.185-0.007-0.020-0.001-0.040-0.002-0.060-0.003-0.106-0.006-0.185-0.011-0.263-0.017l0.036 0.002-0.016-0.001c-0.078-0.006-0.157-0.013-0.235-0.021-0.023-0.002-0.047-0.005-0.070-0.007l-0.063-0.006c-2.556-0.296-4.914-1.612-6.731-3.78-2.011-2.4-3.118-5.573-3.118-8.937 0-0.337 0.012-0.686 0.035-1.043h21.848c0.023 0.356 0.035 0.706 0.035 1.043-0 0.062-0.001 0.124-0.002 0.186z"></path>
<path d="M9.053 12.419h4.635v0.95h-4.635zM8.484 31.049h15.032v0.951h-15.032z"></path>
</symbol>
<symbol id="icon-form-ice-cream-icon" viewBox="0 0 32 32">
      <path d="M26.839 12.387c0-.074-.012-.145-.022-.216-.211-2.908-2.337-5.335-5.171-5.898A5.684 5.684 0 0 0 16.001.001a5.684 5.684 0 0 0-5.65 6.218 5.683 5.683 0 0 0-5.189 5.653v6.71c0 1.139.926 2.064 2.064 2.064s2.064-.926 2.064-2.064c0-.202.06-.389.161-.548l5.559 13.138c.116.269.356.829.99.829s.875-.56.985-.817l5.724-12.49v-.036c2.412-.935 4.129-3.274 4.129-6.012 0-.087-.008-.172-.012-.258h.012zm-1.335-1.527c-.07-.01-.14-.022-.214-.022a1.55 1.55 0 0 0-1.548 1.548 1.033 1.033 0 0 1-2.064 0v-1.548c0-.825-.525-1.449-1.124-1.785a5.642 5.642 0 0 0 .888-1.77c1.914.379 3.443 1.773 4.062 3.577zM16 1.032c2.562 0 4.645 2.084 4.645 4.645S18.561 10.322 16 10.322c-2.562 0-4.645-2.084-4.645-4.645S13.439 1.032 16 1.032zM12.258 22.02l1.419-1.419 1.077 1.077-1.855 1.856-.64-1.513zm1.075 2.538.087-.087 1.077 1.077-.523.523-.64-1.513zm2.709 6.206c-.016.036-.029.067-.042.093l-.041-.09-1.553-3.669.819-.819.925.925.73-.73-.925-.926 1.442-1.442-.73-.73-1.442 1.442-1.077-1.077 3.764-3.764-.73-.73-1.7 1.7-1.077-1.077.925-.925-.73-.73-.925.925-.925-.925-.73.73.925.925-1.123 1.123-1.466-3.466a5.655 5.655 0 0 0 4.494-1.646 6.393 6.393 0 0 0 5.534 3.215c.356 0 .703-.037 1.045-.092l-5.39 11.76zm4.345-12.7c-2.059 0-3.923-1.188-4.826-3.047a5.638 5.638 0 0 0 .955-3.146h-1.032a4.65 4.65 0 0 1-4.645 4.645 4.602 4.602 0 0 1-2.787-.929l-.62.825c.429.323.896.575 1.387.762a2.052 2.052 0 0 0-.561 1.405 1.033 1.033 0 0 1-2.064 0v-6.71a4.648 4.648 0 0 1 4.353-4.63c.681 2.372 2.866 4.114 5.453 4.114a5.647 5.647 0 0 0 3.831-1.5c.332.115.814.445.814.984v1.549c0 1.139.926 2.064 2.064 2.064s2.065-.926 2.065-2.064a.51.51 0 0 1 1.017-.076c.007.111.016.221.016.334a5.425 5.425 0 0 1-5.419 5.419z"/>
      <path d="M15.484 1.548h1.032V2.58h-1.032V1.548zM13.419 2.581h1.032v1.032h-1.032V2.581zM18.064 4.129h1.032v1.032h-1.032V4.129zM7.742 9.806h1.032v1.032H7.742V9.806zM9.29 8.258h1.032V9.29H9.29V8.258zM22.71 9.29h1.032v1.032H22.71V9.29zM17.548 12.387h1.032v1.032h-1.032v-1.032z"/>
    </symbol>
  </defs>
</svg>
