<?xml version="1.0" standalone="no"?>
<!DOCTYPE svg PUBLIC "-//W3C//DTD SVG 20010904//EN"
 "http://www.w3.org/TR/2001/REC-SVG-20010904/DTD/svg10.dtd">
<svg version="1.0" xmlns="http://www.w3.org/2000/svg"
 width="512.000000pt" height="512.000000pt" viewBox="0 0 512.000000 512.000000"
 preserveAspectRatio="xMidYMid meet">
<metadata>
Created by potrace 1.14, written by Peter Selinger 2001-2017
</metadata>
<g transform="translate(0.000000,512.000000) scale(0.100000,-0.100000)"
fill="#000000" stroke="none">
<path d="M2396 4934 c-38 -9 -98 -28 -134 -45 -64 -28 -183 -111 -212 -146
-102 -123 -140 -193 -171 -312 -29 -107 -24 -303 8 -387 4 -11 -5 -14 -41 -14
-83 0 -189 -46 -257 -110 -93 -89 -137 -246 -104 -374 8 -31 15 -58 15 -60 0
-2 -25 -20 -55 -40 -134 -88 -228 -235 -252 -391 -10 -65 -7 -176 7 -235 38
-163 159 -317 304 -386 76 -36 77 -37 70 -68 -4 -17 -7 -41 -6 -53 2 -33 101
-423 113 -444 16 -31 74 -68 115 -75 39 -6 49 -10 50 -22 1 -16 16 -138 19
-153 1 -8 6 -41 9 -71 4 -31 8 -64 10 -74 2 -11 7 -45 11 -78 3 -32 8 -68 10
-80 2 -11 6 -43 10 -71 7 -56 12 -92 20 -148 3 -21 8 -59 11 -85 3 -26 7 -58
9 -72 5 -30 23 -169 30 -225 13 -108 39 -189 76 -236 16 -20 25 -39 21 -43 -4
-4 -2 -6 3 -5 16 5 65 -32 58 -44 -3 -6 -1 -7 5 -3 6 3 27 -3 48 -14 20 -12
39 -19 41 -16 3 3 16 1 29 -4 28 -11 537 -16 553 -6 6 4 11 2 11 -5 0 -8 4 -8
15 1 8 7 24 10 36 7 12 -3 18 -3 15 0 -3 3 16 16 42 28 26 12 61 34 78 48 17
15 35 23 39 19 5 -4 5 -2 1 5 -8 15 24 54 37 46 6 -3 7 -2 4 4 -3 5 2 32 13
60 10 27 21 69 25 94 3 24 8 51 10 59 2 8 6 40 10 71 3 31 7 65 9 75 2 11 7
48 11 84 4 36 8 67 10 70 2 3 6 37 9 75 4 39 9 77 11 85 2 8 6 38 10 65 3 28
10 77 15 110 5 33 12 85 15 115 3 30 8 66 10 80 2 14 6 45 10 70 3 25 8 62 11
83 3 20 7 48 9 62 3 31 4 33 35 38 101 20 116 43 179 294 51 203 58 257 38
303 -5 11 10 24 60 50 136 69 247 213 288 369 31 119 24 282 -17 386 -35 91
-122 192 -218 254 l-55 36 13 40 c76 229 -96 485 -337 503 l-69 5 13 38 c9 24
13 69 11 117 -5 129 -66 225 -181 285 -57 29 -67 31 -210 37 -162 6 -198 16
-252 66 -72 68 -96 179 -59 276 17 44 17 49 2 73 -19 29 -32 30 -130 9z"/>
<path d="M1796 453 c-6 -14 -5 -15 5 -6 7 7 10 15 7 18 -3 3 -9 -2 -12 -12z"/>
<path d="M1630 445 c0 -5 5 -17 10 -25 5 -8 10 -10 10 -5 0 6 -5 17 -10 25 -5
8 -10 11 -10 5z"/>
<path d="M1759 398 c-5 -18 -6 -38 -1 -34 7 8 12 36 6 36 -2 0 -4 -1 -5 -2z"/>
<path d="M3470 383 c0 -6 8 -17 18 -24 16 -13 16 -13 2 6 -8 11 -16 22 -17 24
-2 2 -3 0 -3 -6z"/>
<path d="M3030 365 c0 -5 5 -17 10 -25 5 -8 10 -10 10 -5 0 6 -5 17 -10 25 -5
8 -10 11 -10 5z"/>
<path d="M2416 322 c-3 -5 1 -9 9 -9 8 0 12 4 9 9 -3 4 -7 8 -9 8 -2 0 -6 -4
-9 -8z"/>
<path d="M2470 320 c0 -5 5 -10 11 -10 5 0 7 5 4 10 -3 6 -8 10 -11 10 -2 0
-4 -4 -4 -10z"/>
<path d="M2527 319 c7 -7 15 -10 18 -7 3 3 -2 9 -12 12 -14 6 -15 5 -6 -5z"/>
<path d="M2873 315 c0 -8 4 -12 9 -9 5 3 6 10 3 15 -9 13 -12 11 -12 -6z"/>
<path d="M2950 321 c0 -6 4 -13 10 -16 6 -3 7 1 4 9 -7 18 -14 21 -14 7z"/>
<path d="M3310 316 c7 -7 13 -7 20 0 6 6 3 10 -10 10 -13 0 -16 -4 -10 -10z"/>
<path d="M3066 278 c3 -5 10 -6 15 -3 13 9 11 12 -6 12 -8 0 -12 -4 -9 -9z"/>
</g>
</svg>
